<mxfile host="app.diagrams.net" modified="2023-06-30T01:42:23.618Z" agent="Mozilla/5.0 (Windows NT 10.0; Win64; x64) AppleWebKit/537.36 (KHTML, like Gecko) Chrome/114.0.0.0 Safari/537.36" etag="vb_SYsGaBfs8KeqysxcW" version="21.5.2" type="github">
  <diagram id="C5RBs43oDa-KdzZeNtuy" name="Page-1">
    <mxGraphModel dx="1763" dy="893" grid="0" gridSize="10" guides="1" tooltips="1" connect="1" arrows="1" fold="1" page="0" pageScale="1" pageWidth="827" pageHeight="1169" background="none" math="0" shadow="0">
      <root>
        <mxCell id="WIyWlLk6GJQsqaUBKTNV-0" />
        <mxCell id="WIyWlLk6GJQsqaUBKTNV-1" parent="WIyWlLk6GJQsqaUBKTNV-0" />
        <mxCell id="xwn9-Pyer9hemzIIuyxd-31" value="" style="edgeStyle=orthogonalEdgeStyle;rounded=0;orthogonalLoop=1;jettySize=auto;html=1;" edge="1" parent="WIyWlLk6GJQsqaUBKTNV-1" source="xwn9-Pyer9hemzIIuyxd-29" target="xwn9-Pyer9hemzIIuyxd-30">
          <mxGeometry relative="1" as="geometry" />
        </mxCell>
        <mxCell id="xwn9-Pyer9hemzIIuyxd-29" value="Get year" style="shape=process;whiteSpace=wrap;html=1;backgroundOutline=1;fillColor=#1ba1e2;fontColor=#ffffff;strokeColor=#006EAF;" vertex="1" parent="WIyWlLk6GJQsqaUBKTNV-1">
          <mxGeometry x="67" y="22" width="120" height="60" as="geometry" />
        </mxCell>
        <mxCell id="xwn9-Pyer9hemzIIuyxd-33" value="" style="edgeStyle=orthogonalEdgeStyle;rounded=0;orthogonalLoop=1;jettySize=auto;html=1;" edge="1" parent="WIyWlLk6GJQsqaUBKTNV-1" source="xwn9-Pyer9hemzIIuyxd-30" target="xwn9-Pyer9hemzIIuyxd-32">
          <mxGeometry relative="1" as="geometry" />
        </mxCell>
        <mxCell id="xwn9-Pyer9hemzIIuyxd-36" value="" style="edgeStyle=orthogonalEdgeStyle;rounded=0;orthogonalLoop=1;jettySize=auto;html=1;" edge="1" parent="WIyWlLk6GJQsqaUBKTNV-1" source="xwn9-Pyer9hemzIIuyxd-30" target="xwn9-Pyer9hemzIIuyxd-35">
          <mxGeometry relative="1" as="geometry" />
        </mxCell>
        <mxCell id="xwn9-Pyer9hemzIIuyxd-30" value="Divisible by 4?" style="whiteSpace=wrap;html=1;fillColor=#0050ef;fontColor=#ffffff;strokeColor=#001DBC;" vertex="1" parent="WIyWlLk6GJQsqaUBKTNV-1">
          <mxGeometry x="67" y="151" width="120" height="60" as="geometry" />
        </mxCell>
        <mxCell id="xwn9-Pyer9hemzIIuyxd-32" value="not a leap year" style="ellipse;whiteSpace=wrap;html=1;fillColor=#a20025;fontColor=#ffffff;strokeColor=#6F0000;" vertex="1" parent="WIyWlLk6GJQsqaUBKTNV-1">
          <mxGeometry x="-80" y="248" width="80" height="80" as="geometry" />
        </mxCell>
        <mxCell id="xwn9-Pyer9hemzIIuyxd-34" value="no" style="text;html=1;align=center;verticalAlign=middle;resizable=0;points=[];autosize=1;strokeColor=#3700CC;fillColor=#6a00ff;fontColor=#ffffff;" vertex="1" parent="WIyWlLk6GJQsqaUBKTNV-1">
          <mxGeometry x="-10" y="153" width="31" height="26" as="geometry" />
        </mxCell>
        <mxCell id="xwn9-Pyer9hemzIIuyxd-40" value="" style="edgeStyle=orthogonalEdgeStyle;rounded=0;orthogonalLoop=1;jettySize=auto;html=1;" edge="1" parent="WIyWlLk6GJQsqaUBKTNV-1" source="xwn9-Pyer9hemzIIuyxd-35" target="xwn9-Pyer9hemzIIuyxd-39">
          <mxGeometry relative="1" as="geometry" />
        </mxCell>
        <mxCell id="xwn9-Pyer9hemzIIuyxd-43" value="" style="edgeStyle=orthogonalEdgeStyle;rounded=0;orthogonalLoop=1;jettySize=auto;html=1;" edge="1" parent="WIyWlLk6GJQsqaUBKTNV-1" source="xwn9-Pyer9hemzIIuyxd-35" target="xwn9-Pyer9hemzIIuyxd-42">
          <mxGeometry relative="1" as="geometry" />
        </mxCell>
        <mxCell id="xwn9-Pyer9hemzIIuyxd-35" value="Divisible by 100?" style="whiteSpace=wrap;html=1;fillColor=#0050ef;strokeColor=#001DBC;fontColor=#ffffff;" vertex="1" parent="WIyWlLk6GJQsqaUBKTNV-1">
          <mxGeometry x="232" y="334" width="120" height="60" as="geometry" />
        </mxCell>
        <mxCell id="xwn9-Pyer9hemzIIuyxd-37" value="yes" style="text;html=1;align=center;verticalAlign=middle;resizable=0;points=[];autosize=1;strokeColor=#3700CC;fillColor=#6a00ff;fontColor=#ffffff;" vertex="1" parent="WIyWlLk6GJQsqaUBKTNV-1">
          <mxGeometry x="217" y="151" width="37" height="26" as="geometry" />
        </mxCell>
        <mxCell id="xwn9-Pyer9hemzIIuyxd-39" value="leap year!" style="ellipse;whiteSpace=wrap;html=1;fillColor=#008a00;strokeColor=#005700;fontColor=#ffffff;" vertex="1" parent="WIyWlLk6GJQsqaUBKTNV-1">
          <mxGeometry x="74" y="436" width="80" height="80" as="geometry" />
        </mxCell>
        <mxCell id="xwn9-Pyer9hemzIIuyxd-41" value="no" style="text;html=1;align=center;verticalAlign=middle;resizable=0;points=[];autosize=1;strokeColor=#3700CC;fillColor=#6a00ff;fontColor=#ffffff;" vertex="1" parent="WIyWlLk6GJQsqaUBKTNV-1">
          <mxGeometry x="153" y="334" width="31" height="26" as="geometry" />
        </mxCell>
        <mxCell id="xwn9-Pyer9hemzIIuyxd-46" value="" style="edgeStyle=orthogonalEdgeStyle;rounded=0;orthogonalLoop=1;jettySize=auto;html=1;" edge="1" parent="WIyWlLk6GJQsqaUBKTNV-1" source="xwn9-Pyer9hemzIIuyxd-42" target="xwn9-Pyer9hemzIIuyxd-45">
          <mxGeometry relative="1" as="geometry" />
        </mxCell>
        <mxCell id="xwn9-Pyer9hemzIIuyxd-48" value="" style="edgeStyle=orthogonalEdgeStyle;rounded=0;orthogonalLoop=1;jettySize=auto;html=1;" edge="1" parent="WIyWlLk6GJQsqaUBKTNV-1" source="xwn9-Pyer9hemzIIuyxd-42" target="xwn9-Pyer9hemzIIuyxd-47">
          <mxGeometry relative="1" as="geometry" />
        </mxCell>
        <mxCell id="xwn9-Pyer9hemzIIuyxd-42" value="Divisble by 400?" style="whiteSpace=wrap;html=1;fillColor=#0050ef;strokeColor=#001DBC;fontColor=#ffffff;" vertex="1" parent="WIyWlLk6GJQsqaUBKTNV-1">
          <mxGeometry x="416" y="516" width="120" height="60" as="geometry" />
        </mxCell>
        <mxCell id="xwn9-Pyer9hemzIIuyxd-44" value="yes" style="text;html=1;align=center;verticalAlign=middle;resizable=0;points=[];autosize=1;strokeColor=#3700CC;fillColor=#6a00ff;fontColor=#ffffff;" vertex="1" parent="WIyWlLk6GJQsqaUBKTNV-1">
          <mxGeometry x="388" y="336" width="37" height="26" as="geometry" />
        </mxCell>
        <mxCell id="xwn9-Pyer9hemzIIuyxd-45" value="not a leap year" style="ellipse;whiteSpace=wrap;html=1;fillColor=#a20025;strokeColor=#6F0000;fontColor=#ffffff;" vertex="1" parent="WIyWlLk6GJQsqaUBKTNV-1">
          <mxGeometry x="272" y="633" width="80" height="80" as="geometry" />
        </mxCell>
        <mxCell id="xwn9-Pyer9hemzIIuyxd-47" value="leap year!" style="ellipse;whiteSpace=wrap;html=1;fillColor=#008a00;strokeColor=#005700;fontColor=#ffffff;" vertex="1" parent="WIyWlLk6GJQsqaUBKTNV-1">
          <mxGeometry x="619" y="633" width="80" height="80" as="geometry" />
        </mxCell>
        <mxCell id="xwn9-Pyer9hemzIIuyxd-49" value="no" style="text;html=1;align=center;verticalAlign=middle;resizable=0;points=[];autosize=1;strokeColor=#3700CC;fillColor=#6a00ff;fontColor=#ffffff;" vertex="1" parent="WIyWlLk6GJQsqaUBKTNV-1">
          <mxGeometry x="360" y="516" width="31" height="26" as="geometry" />
        </mxCell>
        <mxCell id="xwn9-Pyer9hemzIIuyxd-50" value="yes" style="text;html=1;align=center;verticalAlign=middle;resizable=0;points=[];autosize=1;strokeColor=#3700CC;fillColor=#6a00ff;fontColor=#ffffff;" vertex="1" parent="WIyWlLk6GJQsqaUBKTNV-1">
          <mxGeometry x="567" y="516" width="37" height="26" as="geometry" />
        </mxCell>
      </root>
    </mxGraphModel>
  </diagram>
</mxfile>
